<svg width="256" height="81" viewBox="0 0 256 81" fill="none" xmlns="http://www.w3.org/2000/svg">
<path d="M0.426668 0.359375C0.191026 0.359375 0 0.550606 0 0.786501V53.323C0 53.5589 0.191025 53.7502 0.426667 53.7502H10.3019C10.5375 53.7502 10.7285 53.5589 10.7285 53.323V16.682H12.4672L28.1497 53.4906C28.2167 53.648 28.3712 53.7502 28.5421 53.7502H37.7256C37.8965 53.7502 38.051 53.648 38.1181 53.4906L53.8005 16.682H55.5392V53.323C55.5392 53.5589 55.7302 53.7502 55.9659 53.7502H65.8411C66.0767 53.7502 66.2677 53.5589 66.2677 53.323V0.786502C66.2677 0.550607 66.0767 0.359375 65.8411 0.359375H50.3043C50.1333 0.359375 49.9789 0.461524 49.9118 0.618943L34.0032 37.9614H32.2645L16.3559 0.618944C16.2889 0.461525 16.1344 0.359375 15.9634 0.359375H0.426668ZM112.486 0.623716C112.421 0.463756 112.265 0.359375 112.092 0.359375H98.0794C97.9067 0.359375 97.7511 0.463525 97.6851 0.623227L75.8532 53.455C75.7951 53.5956 75.8983 53.7502 76.0503 53.7502H86.9287C87.1029 53.7502 87.2596 53.6441 87.3246 53.4823L91.6885 42.615H118.483L122.847 53.4823C122.912 53.6441 123.069 53.7502 123.243 53.7502H134.045C134.197 53.7502 134.3 53.5958 134.242 53.4552L112.486 0.623716ZM95.5477 33.0046L104.218 11.4198H105.956L114.626 33.0046H95.5477ZM144.273 0.359375C144.037 0.359375 143.846 0.550606 143.846 0.786501V53.323C143.846 53.5589 144.037 53.7502 144.273 53.7502H154.145C154.382 53.7502 154.573 53.5567 154.571 53.3194L154.334 25.6816V10.5186C154.334 10.3417 154.477 10.1982 154.654 10.1982H171.501C173.114 10.1982 174.524 10.5036 175.731 11.1144C176.941 11.7252 177.873 12.6393 178.528 13.8608C179.232 15.0312 179.586 16.3787 179.586 17.9036C179.586 19.4284 179.234 20.8529 178.528 22.0232C177.873 23.1935 176.941 24.1076 175.731 24.7696C174.522 25.3804 173.111 25.6837 171.501 25.6837H156.91C156.733 25.6837 156.633 25.8875 156.742 26.0279L178.033 53.5865C178.114 53.6911 178.238 53.7523 178.37 53.7523H189.862C190.042 53.7523 190.141 53.542 190.026 53.4027L174.97 35.1509C177.393 34.9438 179.661 34.254 181.777 33.0815C184.397 31.6079 186.462 29.5983 187.972 27.0569C189.534 24.4642 190.315 21.4893 190.315 18.1321C190.315 14.7749 189.534 11.5223 187.972 8.82715C186.411 6.13199 184.22 4.04761 181.399 2.57189C178.628 1.09617 175.479 0.359375 171.953 0.359375H144.273ZM234.121 0.6237C234.055 0.463747 233.899 0.359375 233.726 0.359375H219.713C219.541 0.359375 219.385 0.463525 219.319 0.623227L197.487 53.455C197.429 53.5956 197.532 53.7502 197.684 53.7502H208.563C208.737 53.7502 208.894 53.6441 208.959 53.4823L213.323 42.615H240.117L244.483 53.4824C244.548 53.6442 244.705 53.7502 244.879 53.7502H255.681C255.833 53.7502 255.936 53.5958 255.879 53.4552L234.121 0.6237ZM217.182 33.0046L225.852 11.4198H227.588L236.258 33.0046H217.182ZM241.542 7.88107V2.02303H239.211V0.786501C239.211 0.550606 239.402 0.359375 239.637 0.359375H245.534V2.02303H243.202V7.88107H241.542ZM246.773 7.8832V0.359375H249.551L251.262 5.4977H251.509L253.222 0.359375H256V7.88107H254.338V2.49501H254.091L252.305 7.8832H250.494L248.683 2.49501H248.435V7.8832H246.773Z" fill="#272525"/>
<path d="M0 70.1973C0 69.9614 0.191025 69.7702 0.426667 69.7702H255.573C255.809 69.7702 256 69.9614 256 70.1973V80.0216C256 80.2575 255.809 80.4488 255.573 80.4488H0.426666C0.191025 80.4488 0 80.2575 0 80.0216V70.1973Z" fill="#F2A900"/>
</svg>
